<?xml version="1.0" standalone="no"?>
<!DOCTYPE svg PUBLIC "-//W3C//DTD SVG 20010904//EN"
 "http://www.w3.org/TR/2001/REC-SVG-20010904/DTD/svg10.dtd">
<svg version="1.0" xmlns="http://www.w3.org/2000/svg"
 width="700.000000pt" height="440.000000pt" viewBox="0 0 700.000000 440.000000"
 preserveAspectRatio="xMidYMid meet">

<g transform="translate(0.000000,440.000000) scale(0.100000,-0.100000)"
fill="#000000" stroke="none">
<path d="M3225 2378 c-3 -7 -30 -80 -60 -162 -30 -82 -55 -152 -55 -157 0 -5
16 -9 35 -9 31 0 35 3 46 40 11 34 16 40 41 40 24 0 28 4 28 30 0 23 -4 30
-20 30 -11 0 -20 1 -20 3 0 1 9 31 20 67 24 80 26 130 5 130 -9 0 -18 -6 -20
-12z"/>
<path d="M3825 2378 c-2 -7 -16 -67 -30 -133 -14 -66 -28 -121 -30 -123 -2 -3
-7 9 -10 24 -12 52 -13 50 -14 -23 l-1 -73 34 0 33 0 42 158 c22 87 41 164 41
170 0 16 -60 15 -65 0z"/>
</g>
</svg>
